<?xml version="1.0" encoding="utf-8"?>
<!-- Generator: Adobe Illustrator 24.2.1, SVG Export Plug-In . SVG Version: 6.00 Build 0)  -->
<svg version="1.1" id="Слой_1" xmlns="http://www.w3.org/2000/svg" xmlns:xlink="http://www.w3.org/1999/xlink" x="0px" y="0px"
	 viewBox="0 0 250 250" style="enable-background:new 0 0 250 250;" xml:space="preserve">
<style type="text/css">
	.st0{fill:#FFFFFF;}
	.st1{fill:#0B438C;}
	.st2{fill:#E8E8E9;}
	.st3{fill:#61D3B3;}
	.st4{fill:#5ED2B7;}
</style>
<path class="st0" d="M184.7,98l-0.8-0.9c-4.2-4.4-4.6-10.8-1-14.3l15.4-14.6c5.6-5.3,13.6-6,17.7-1.6l0.8,0.9
	c4.2,4.4,3,12.3-2.6,17.6l-15.4,14.6C195.3,103.2,188.9,102.4,184.7,98z"/>
<path class="st1" d="M193.2,105.6c-0.5,0-1.1,0-1.7-0.1c-3.5-0.4-6.9-2.2-9.5-4.9l-0.8-0.9c-5.6-5.9-6-14.7-0.9-19.5l15.4-14.6
	c7.1-6.7,17.4-7.4,23-1.5l0.8,0.9c5.6,5.9,4.4,16.2-2.7,22.9l-15.4,14.6C199.3,104.5,196.4,105.6,193.2,105.6z M187.4,95.4
	c1.4,1.5,3.2,2.5,5.1,2.7c0.9,0.1,2.6,0.1,3.9-1.1l15.4-14.6c4-3.8,5.1-9.5,2.4-12.4l-0.8-0.9c-2.7-2.9-8.5-2.1-12.5,1.8l-15.4,14.6
	c-2.1,2-1.6,6.1,1.1,9L187.4,95.4z"/>
<path class="st0" d="M106.5,117.3l-20-7.4l-26.7,84.6c1.5,1.2,3,2.5,4.5,3.7c5,4.5,9.8,9.6,13.9,15.1l25.9,3.7
	c5.7-6.2,10-10.2,14.9-14.9c38.1,2.8,55.6-25.3,59.4-29.7C182.2,168,106.5,117.3,106.5,117.3z"/>
<path class="st1" d="M105.4,221L76,216.8l-0.9-1.3c-3.7-5.1-8.2-10-13.4-14.6c-1.4-1.2-2.8-2.4-4.3-3.6l-2-1.6L84.1,105l24.5,9.2
	c33,22.2,72.6,50.1,73.6,57.2c0.2,1.3-0.2,2.5-1,3.5c-0.3,0.4-0.7,0.9-1.2,1.6c-6,7.8-24.2,31.4-59.6,29.6c-4.4,4.2-8.4,8-13.6,13.6
	L105.4,221z M80.2,209.9l22.4,3.2c5-5.3,8.8-9,13.3-13.2l1.7-1.6l1.6,0.1c32.7,2.4,49.3-19.4,54.8-26.6l0.1-0.1
	c-6-6.9-38.7-30.7-69.3-51.2l-16-5.9L64,193.1c0.9,0.7,1.8,1.5,2.6,2.3C71.8,200,76.4,204.8,80.2,209.9z"/>
<path class="st2" d="M194.1,176.2h-90.6c-1.7,0-3-1.3-3-3V15.6c0-1.7,1.3-3,3-3h90.6c1.7,0,3,1.3,3,3v157.6
	C197.1,174.9,195.7,176.2,194.1,176.2z"/>
<path class="st1" d="M185.9,179.9h-74.3c-8.2,0-14.9-6.7-14.9-14.9V23.8c0-8.2,6.7-14.9,14.9-14.9h74.3c8.2,0,14.9,6.7,14.9,14.9
	V165C200.8,173.2,194.1,179.9,185.9,179.9z M111.6,16.4c-4.1,0-7.4,3.3-7.4,7.4V165c0,4.1,3.3,7.4,7.4,7.4h74.3
	c4.1,0,7.4-3.3,7.4-7.4V23.8c0-4.1-3.3-7.4-7.4-7.4H111.6z"/>
<rect x="100.4" y="31.2" class="st0" width="96.6" height="115.2"/>
<path class="st1" d="M200.8,150.2H96.7V27.5h104.1L200.8,150.2L200.8,150.2z M104.2,142.7h89.2V34.9h-89.2V142.7z"/>
<path class="st0" d="M195,172.9l-0.8-0.7c-4.2-3.6-5.7-8.7-3.5-11.4l9.7-11.2c3.5-4.1,9.8-4.5,14-0.8l0.8,0.7
	c4.2,3.6,4.7,9.9,1.2,14l-9.7,11.2C204.5,177.3,199.2,176.5,195,172.9z"/>
<path class="st1" d="M202.8,179.9c-3.3,0-7-1.4-10.3-4.2l-0.8-0.7c-2.5-2.2-4.4-5-5.3-7.8c-1-3.4-0.5-6.6,1.4-8.8l9.7-11.2
	c4.9-5.6,13.5-6.2,19.2-1.2l0.8,0.7c5.7,5,6.5,13.6,1.6,19.2l-9.7,11.2C207.9,179,205.5,179.9,202.8,179.9z M197.4,170.1
	c3.2,2.7,6.1,2.6,6.5,2.1l9.7-11.2c2.2-2.5,1.8-6.4-0.8-8.7l-0.8-0.7c-2.6-2.3-6.6-2.1-8.8,0.5l-9.7,11.2c-0.1,0.2-0.3,0.8,0.1,1.8
	c0.4,1.5,1.6,3,3,4.3L197.4,170.1z"/>
<g>
	<path class="st0" d="M102.5,116.6c3.8-11.6,5.4-19.8,6.7-33.4c0.7-7.8-2.6-14.5-6-19.4c-3.5-5-12.2-3.8-13.9,1.7
		c-7.6,24.4-9.1,31.1-13.8,43.3c-5.3,13.7-2.3,33-4.9,38.6c-0.5,1.1-18.3,24-23.2,30.9c5.2,2.6,16.2,7.5,20.5,11.3
		c5.2,4.6,10.2,10,14.4,15.7l4,0.3l23.6-24.3C120.1,152.4,111.7,128.1,102.5,116.6z"/>
</g>
<path class="st1" d="M86.1,209.4l-5.7-0.5l-1-1.4c-3.9-5.3-8.6-10.4-13.9-15.1c-3-2.7-10.7-6.4-15.8-8.9c-1.5-0.7-2.8-1.3-3.9-1.9
	l-3.9-1.9l2.5-3.5c2.6-3.6,8.5-11.4,13.7-18.3c4.1-5.4,8.7-11.4,9.3-12.3c0.6-1.4,0.7-6.2,0.9-10.9c0.2-8.3,0.5-18.5,3.8-27.2
	c3-7.8,4.6-13.2,7.5-22.9c1.6-5.2,3.5-11.6,6.2-20.2c1.2-3.8,4.6-6.6,8.9-7.3c4.6-0.7,9,1,11.5,4.5c5.1,7.2,7.4,14.6,6.7,21.9
	c-1.3,13.5-2.8,21.7-6.3,32.4c9.6,13.4,16.8,38.2,6.8,66.7l-7-2.5c9.4-26.9,2.2-49.9-6.8-61.3l-1.2-1.6l0.6-1.9
	c3.7-11,5.2-18.9,6.5-32.6c0.5-5.5-1.3-11.2-5.4-16.9c-1-1.5-3-1.7-4.3-1.5c-1.2,0.2-2.6,0.9-3,2.2c-2.7,8.6-4.6,14.9-6.1,20.1
	C83.8,96.2,82.1,102,79,110c-2.9,7.4-3.1,17-3.3,24.7c-0.2,6.2-0.3,11.1-1.7,14.2c-0.4,0.8-1.2,1.9-9.9,13.4c-3.8,5-8,10.6-11,14.5
	c6.1,2.9,13.5,6.6,17.3,9.9c5.3,4.7,10,9.7,13.9,14.9l2.4,0.2L86.1,209.4z"/>
<rect x="58.6" y="161" transform="matrix(0.7074 -0.7068 0.7068 0.7074 -121.0432 110.4192)" class="st3" width="28.5" height="80.9"/>
<path class="st1" d="M91.4,245.3L29,182.8l25.4-25.4l62.4,62.5L91.4,245.3z M39.5,182.8l51.9,52l14.9-14.9l-51.9-52L39.5,182.8z"/>
<path class="st0" d="M195.1,146.8l-0.8-0.7c-4.3-3.7-5.8-8.9-3.5-11.6l9.9-11.4c3.6-4.1,10-4.5,14.3-0.9l0.8,0.7
	c4.3,3.7,4.8,10.1,1.2,14.2l-9.9,11.4C204.7,151.3,199.3,150.5,195.1,146.8z"/>
<path class="st1" d="M203,153.9c-0.6,0-1.2,0-1.8-0.1c-3-0.4-6-1.9-8.6-4.1l0,0l-0.8-0.7c-5.9-5.1-7.6-12.5-3.9-16.8l9.9-11.4
	c4.9-5.7,13.7-6.3,19.5-1.2l0.8,0.7c2.8,2.4,4.5,5.8,4.8,9.4c0.3,3.7-0.8,7.3-3.2,10l-9.9,11.4C208.2,152.9,205.8,153.9,203,153.9z
	 M197.5,144c1.5,1.3,3.3,2.2,4.8,2.4c1.1,0.2,1.7-0.1,1.9-0.2l9.9-11.4c1.1-1.2,1.6-2.8,1.4-4.5c-0.1-1.7-1-3.3-2.3-4.5l-0.8-0.7
	c-2.7-2.3-6.8-2.1-9,0.5l-9.9,11.4c-0.5,0.6,0.1,3.7,3.2,6.3L197.5,144z"/>
<path class="st0" d="M195.1,121.5l-0.8-0.7c-4.3-3.7-5.8-8.9-3.5-11.6l9.9-11.4c3.6-4.1,10-4.5,14.3-0.9l0.8,0.7
	c4.3,3.7,4.8,10.1,1.2,14.2l-9.9,11.4C204.7,126,199.3,125.2,195.1,121.5z"/>
<path class="st1" d="M203,128.6c-0.6,0-1.2,0-1.8-0.1c-3-0.4-6-1.9-8.6-4.1l-0.8-0.7c-5.9-5.1-7.6-12.5-3.9-16.8l9.9-11.4
	c2.4-2.8,5.7-4.4,9.5-4.6c3.7-0.2,7.2,1,10,3.4l0.8,0.7c5.8,5,6.6,13.8,1.6,19.5l-9.9,11.4C208.2,127.6,205.8,128.6,203,128.6z
	 M208.1,98.1c-0.1,0-0.3,0-0.4,0c-1.7,0.1-3.2,0.8-4.3,2.1l-9.9,11.4c-0.5,0.6,0.1,3.7,3.1,6.3l0.8,0.7c1.5,1.3,3.3,2.2,4.8,2.4
	c1,0.2,1.7,0,1.9-0.2l9.9-11.4c2.2-2.6,1.9-6.6-0.9-9l-0.8-0.7C211.2,98.7,209.7,98.1,208.1,98.1z"/>
<g>
	<rect x="137.6" y="157.6" class="st3" width="22.3" height="7.4"/>
</g>
<g>
	<path class="st4" d="M180,77.4c-0.5-3-1.5-5.8-2.8-8.5c-1.3-2.6-2.9-4.9-4.9-7c-0.5-0.5-0.9-1-1.5-1.5c-0.2-0.2-0.3-0.4-0.5-0.5
		c0,0,0,0,0,0c0,0,0,0,0,0c0,0,0,0,0-0.1c-2.3-2.1-4.9-3.8-7.8-5.1c-0.8-0.4-1.6-0.7-2.5-1c0,0-0.1,0-0.1,0c-2.5-0.9-5-1.4-7.6-1.6
		c-1.4-0.1-2.9-0.1-4.3,0c-0.8,0-1.7,0.1-2.5,0.2c-0.2,0-0.5,0.1-0.7,0.1c-2.1,0.4-4.1,0.9-6.1,1.6c0,0,0,0,0,0
		c-1.6,0.6-3.2,1.3-4.6,2.2c-0.8,0.5-1.6,1-2.4,1.5c-1,0.8-2.1,1.5-3,2.4c0,0-0.1,0.1-0.1,0.1c0,0,0,0,0,0c-0.4,0.4-0.9,0.8-1.3,1.3
		l0,0l0,0c-1.6,1.6-2.9,3.4-4,5.3c0,0.1-0.1,0.1-0.1,0.2c0,0.1-0.2,0.2-0.1,0.3c0,0.1,0.2,0,0.3,0c7.1,0,14.2,0,21.3,0
		c0.1,0,0.2,0,0.3,0c1.8,0,3.6,0,5.4,0c0.2,0,0.4,0,0.6,0c0.3,0,0.6,0,1,0.1c0,0,0.1,0,0.1,0c1.7,0.2,3.2,0.7,4.8,1.4
		c1.1,0.5,2.2,1.2,3.2,2c0.5,0.5,1.1,1,1.5,1.5c3,3.4,4.3,7.4,3.8,12c-0.2,2-0.8,3.8-1.8,5.6c-0.7,1.3-1.6,2.5-2.7,3.6
		c0,0-0.1,0.1-0.1,0.1c-1.2,1.1-2.5,2-3.9,2.7c-0.4,0.2-0.9,0.4-1.4,0.6c-2.2,0.8-4.5,1-6.9,1c-2.1,0-4.2,0-6.3,0
		c-0.1,0-0.2,0-0.3,0c-3.4,0-6.8,0-10.3,0c-0.1,0-0.2,0-0.2,0c-0.1,0-0.2,0-0.2,0c-2.7,0-5.4,0-8.1,0c-0.1,0-0.2,0-0.2,0
		c0,0.1,0.1,0.1,0.1,0.2c0,0,0,0,0,0c0,0,0,0,0,0c0,0,0,0.1,0,0.1c1.5,2.6,3.4,4.9,5.5,6.9c1.4,1.3,2.9,2.5,4.5,3.5l0,0
		c0.2,0.2,0.5,0.3,0.7,0.4c1.3,0.8,2.6,1.4,3.9,2c0.5,0.2,1,0.4,1.5,0.6c1.5,0.5,3,0.9,4.5,1.3c0.2,0,0.3,0,0.5,0.1
		c1.1,0.2,2.1,0.3,3.2,0.4c0,0,0,0,0,0c1,0,2,0,3,0c0,0,0,0,0,0c0.9,0,1.9,0,2.8-0.2c0.6-0.1,1.3-0.1,1.9-0.3
		c0.5-0.1,1.1-0.2,1.6-0.3c0.8-0.2,1.7-0.4,2.5-0.7c0,0,0,0,0,0c0.1,0,0.1,0,0.2,0c2.8-0.9,5.3-2.2,7.7-3.8c1.1-0.8,2.2-1.6,3.1-2.5
		c0.5-0.6,1.2-1,1.7-1.6c0.5-0.5,0.9-1,1.4-1.5c1.7-2,3.1-4.3,4.3-6.7c1.7-3.6,2.6-7.4,2.8-11.4C180.6,82,180.4,79.7,180,77.4z
		 M146.6,67.3C146.6,67.3,146.6,67.3,146.6,67.3C146.6,67.3,146.6,67.3,146.6,67.3C146.6,67.3,146.6,67.3,146.6,67.3L146.6,67.3z
		 M130.6,64C130.6,64,130.6,64,130.6,64C130.6,64,130.6,64,130.6,64z M138.3,67.3C138.3,67.3,138.3,67.3,138.3,67.3
		C138.3,67.3,138.3,67.3,138.3,67.3C138.3,67.3,138.3,67.3,138.3,67.3C138.3,67.3,138.3,67.3,138.3,67.3
		C138.3,67.3,138.3,67.3,138.3,67.3z M153.9,62.8C153.9,62.8,153.9,62.8,153.9,62.8C153.9,62.8,153.9,62.8,153.9,62.8z M146.7,56.1
		C146.7,56.1,146.7,56,146.7,56.1C146.7,56,146.7,56.1,146.7,56.1z M145.5,52.4C145.5,52.4,145.5,52.4,145.5,52.4
		C145.5,52.4,145.5,52.4,145.5,52.4C145.5,52.4,145.5,52.4,145.5,52.4z M128.8,60.3C128.8,60.3,128.8,60.3,128.8,60.3
		C128.8,60.3,128.8,60.3,128.8,60.3C128.8,60.3,128.8,60.3,128.8,60.3z M141.4,98.1L141.4,98.1C141.4,98.1,141.4,98.1,141.4,98.1
		C141.4,98.1,141.4,98.1,141.4,98.1C141.4,98.1,141.4,98.1,141.4,98.1z M149.9,98.1C149.9,98.1,149.9,98.1,149.9,98.1
		C149.9,98.1,149.9,98.1,149.9,98.1C149.9,98.1,149.9,98.1,149.9,98.1z M143.7,112.9C143.7,112.9,143.7,112.9,143.7,112.9
		C143.7,112.9,143.7,112.9,143.7,112.9C143.7,112.9,143.7,112.9,143.7,112.9z"/>
	<path class="st4" d="M133.5,95.5c1.5,0,3,0,4.5,0c1.8,0,3.6,0,5.4,0c0.8,0,1.6,0,2.4,0c1.6,0,3.1,0.1,4.7,0
		c1.5-0.1,2.9-0.5,4.2-1.1c2.9-1.3,5-3.4,6.4-6.3c0.9-1.9,1.3-3.8,1.2-5.9c0-1.2-0.2-2.3-0.6-3.5c-1.3-3.8-3.8-6.5-7.6-8
		c-1.4-0.6-2.9-0.9-4.4-0.8c-0.1,0-0.1,0-0.2,0c-0.1,0-0.3,0-0.4,0c-1.9,0-3.9,0-5.8,0c0,0,0,0,0,0c0,0,0,0,0,0c-0.1,0-0.2,0-0.3,0
		c-0.1,0-0.2,0-0.3,0c-0.1,0-0.2,0.1-0.3,0c-0.1,0-0.1,0-0.2,0c-3.3,0-6.7,0-10,0c-0.1,0-0.1,0-0.2,0c-0.1-0.1-0.2,0-0.3,0
		c-3.2,0-6.5,0-9.7,0c-0.1,0-0.1,0-0.2,0c-0.1,0-0.1,0-0.1,0.2c0,0.3,0,0.6,0.1,0.8c0.3,2,1.2,3.6,2.9,4.9c1.2,0.9,2.6,1.4,4.2,1.5
		c1.4,0,2.9,0,4.3,0c1,0,2,0,3,0c0,0,0,0,0,0c0,0,0,0,0,0c0.4,0,0.8,0,1.2,0c1.7,0,3.4,0,5.1,0c0.1,0,0.2,0,0.3,0c2.1,0,4.2,0,6.3,0
		c0.7,0,1.4,0,2.1,0.3c4,1.3,5.2,6.3,2.1,9.2c-1.1,1-2.4,1.5-3.8,1.5c-1.8,0-3.5,0-5.3,0c-1.3,0-2.6,0-3.8,0c-0.1,0-0.2,0-0.2,0
		c-3.6,0-7.3,0-10.9,0c-1,0-1.9,0.2-2.8,0.6c-2.8,1.3-4.3,3.4-4.5,6.4c0,0.3,0,0.3,0.3,0.3c3.7,0,7.4,0,11.1,0
		C133.4,95.5,133.4,95.5,133.5,95.5z M131.2,76.5C131.2,76.5,131.1,76.5,131.2,76.5C131.1,76.5,131.2,76.5,131.2,76.5z M142.4,75.3
		C142.4,75.3,142.4,75.3,142.4,75.3C142.4,75.3,142.4,75.3,142.4,75.3C142.4,75.3,142.4,75.3,142.4,75.3z M142.2,72.8
		C142.2,72.8,142.2,72.8,142.2,72.8C142.2,72.8,142.2,72.8,142.2,72.8C142.2,72.8,142.2,72.8,142.2,72.8z M144.1,91.2
		C144.2,91.2,144.2,91.2,144.1,91.2C144.2,91.2,144.2,91.2,144.1,91.2C144.1,91.2,144.1,91.2,144.1,91.2z"/>
	<path class="st4" d="M153.1,82.8c0-2-1.6-3.6-3.6-3.6c-2,0-3.6,1.6-3.6,3.6c0,2,1.6,3.6,3.6,3.6C151.5,86.4,153.1,84.8,153.1,82.8z
		"/>
</g>
</svg>
